<mxfile host="65bd71144e">
    <diagram id="2Q_FlDfcE08q-ejyooCr" name="Page-1">
        <mxGraphModel dx="984" dy="428" grid="1" gridSize="10" guides="1" tooltips="1" connect="1" arrows="1" fold="1" page="1" pageScale="1" pageWidth="850" pageHeight="1100" math="0" shadow="0">
            <root>
                <mxCell id="0"/>
                <mxCell id="1" parent="0"/>
                <mxCell id="2" value="&lt;br&gt;Radio System Structure" style="rounded=0;whiteSpace=wrap;html=1;fontSize=26;fontStyle=5;verticalAlign=top;" vertex="1" parent="1">
                    <mxGeometry x="80" y="160" width="480" height="1200" as="geometry"/>
                </mxCell>
                <mxCell id="3" value="&lt;b style=&quot;font-size: 26px;&quot;&gt;&lt;u style=&quot;font-size: 26px;&quot;&gt;Framework Data Structures&lt;/u&gt;&lt;/b&gt;" style="rounded=0;whiteSpace=wrap;html=1;align=center;verticalAlign=middle;fontSize=26;" vertex="1" parent="1">
                    <mxGeometry width="600" height="80" as="geometry"/>
                </mxCell>
                <mxCell id="4" value="&lt;b&gt;&lt;u&gt;&lt;font style=&quot;font-size: 20px;&quot;&gt;Radio Preset Hashmap (ACRE)&lt;/font&gt;&lt;/u&gt;&lt;/b&gt;&lt;br&gt;BAX_var_radio_presets = {&lt;br&gt;&amp;nbsp; blufor : [&lt;br&gt;&amp;nbsp; &amp;nbsp; [&quot;ACRE_117F&quot;, 1],&lt;br&gt;&amp;nbsp; &amp;nbsp; [&quot;ACRE_152&quot;, 2]&lt;br&gt;&amp;nbsp; ],&lt;br&gt;&amp;nbsp; west_alpha : [&lt;br&gt;&amp;nbsp; &amp;nbsp; [&quot;ACRE_343&quot;, 1]&lt;br&gt;&amp;nbsp; ],&lt;br&gt;&amp;nbsp; west_bravo : [&lt;br&gt;&amp;nbsp; &amp;nbsp; [&quot;ACRE_343&quot;, 2]&lt;br&gt;&amp;nbsp; ]&lt;br&gt;}" style="rounded=0;whiteSpace=wrap;html=1;fontSize=16;align=left;verticalAlign=top;" vertex="1" parent="1">
                    <mxGeometry x="160" y="320" width="320" height="330" as="geometry"/>
                </mxCell>
            </root>
        </mxGraphModel>
    </diagram>
</mxfile>